G75*
%MOIN*%
%OFA0B0*%
%FSLAX24Y24*%
%IPPOS*%
%LPD*%
%AMOC8*
5,1,8,0,0,1.08239X$1,22.5*
%
%ADD10C,0.0000*%
D10*
X001188Y001281D02*
X001188Y022996D01*
X002054Y024825D02*
X009197Y030668D01*
X010693Y031202D02*
X013731Y031202D01*
X012841Y029691D02*
X012841Y027872D01*
X012842Y027872D02*
X012840Y027826D01*
X012835Y027780D01*
X012826Y027734D01*
X012813Y027689D01*
X012797Y027646D01*
X012778Y027604D01*
X012755Y027563D01*
X012729Y027525D01*
X012700Y027488D01*
X012669Y027454D01*
X012635Y027423D01*
X012598Y027394D01*
X012560Y027368D01*
X012519Y027345D01*
X012477Y027326D01*
X012434Y027310D01*
X012389Y027297D01*
X012343Y027288D01*
X012297Y027283D01*
X012251Y027281D01*
X012172Y027281D01*
X012126Y027283D01*
X012080Y027288D01*
X012034Y027297D01*
X011989Y027310D01*
X011946Y027326D01*
X011904Y027345D01*
X011863Y027368D01*
X011825Y027394D01*
X011788Y027423D01*
X011754Y027454D01*
X011723Y027488D01*
X011694Y027525D01*
X011668Y027563D01*
X011645Y027604D01*
X011626Y027646D01*
X011610Y027689D01*
X011597Y027734D01*
X011588Y027780D01*
X011583Y027826D01*
X011581Y027872D01*
X011582Y027872D02*
X011582Y029691D01*
X011581Y029691D02*
X011583Y029737D01*
X011588Y029783D01*
X011597Y029829D01*
X011610Y029874D01*
X011626Y029917D01*
X011645Y029959D01*
X011668Y030000D01*
X011694Y030038D01*
X011723Y030075D01*
X011754Y030109D01*
X011788Y030140D01*
X011825Y030169D01*
X011863Y030195D01*
X011904Y030218D01*
X011946Y030237D01*
X011989Y030253D01*
X012034Y030266D01*
X012080Y030275D01*
X012126Y030280D01*
X012172Y030282D01*
X012172Y030281D02*
X012251Y030281D01*
X012251Y030282D02*
X012297Y030280D01*
X012343Y030275D01*
X012389Y030266D01*
X012434Y030253D01*
X012477Y030237D01*
X012519Y030218D01*
X012560Y030195D01*
X012598Y030169D01*
X012635Y030140D01*
X012669Y030109D01*
X012700Y030075D01*
X012729Y030038D01*
X012755Y030000D01*
X012778Y029959D01*
X012797Y029917D01*
X012813Y029874D01*
X012826Y029829D01*
X012835Y029783D01*
X012840Y029737D01*
X012842Y029691D01*
X013731Y031202D02*
X013826Y031200D01*
X013921Y031194D01*
X014016Y031185D01*
X014110Y031171D01*
X014204Y031154D01*
X014297Y031133D01*
X014389Y031108D01*
X014480Y031080D01*
X014570Y031048D01*
X014658Y031012D01*
X014745Y030973D01*
X014830Y030931D01*
X014914Y030885D01*
X014995Y030835D01*
X015075Y030783D01*
X015152Y030727D01*
X015227Y030668D01*
X015226Y030668D02*
X022369Y024825D01*
X023235Y022996D02*
X023235Y001281D01*
X021267Y001281D02*
X021269Y001337D01*
X021275Y001392D01*
X021285Y001446D01*
X021298Y001500D01*
X021316Y001553D01*
X021337Y001604D01*
X021361Y001654D01*
X021389Y001702D01*
X021421Y001748D01*
X021455Y001792D01*
X021493Y001833D01*
X021533Y001871D01*
X021576Y001906D01*
X021621Y001938D01*
X021669Y001967D01*
X021718Y001993D01*
X021769Y002015D01*
X021821Y002033D01*
X021875Y002047D01*
X021930Y002058D01*
X021985Y002065D01*
X022040Y002068D01*
X022096Y002067D01*
X022151Y002062D01*
X022206Y002053D01*
X022260Y002041D01*
X022313Y002024D01*
X022365Y002004D01*
X022415Y001980D01*
X022463Y001953D01*
X022510Y001923D01*
X022554Y001889D01*
X022596Y001852D01*
X022634Y001812D01*
X022671Y001770D01*
X022704Y001725D01*
X022733Y001679D01*
X022760Y001630D01*
X022782Y001579D01*
X022802Y001527D01*
X022817Y001473D01*
X022829Y001419D01*
X022837Y001364D01*
X022841Y001309D01*
X022841Y001253D01*
X022837Y001198D01*
X022829Y001143D01*
X022817Y001089D01*
X022802Y001035D01*
X022782Y000983D01*
X022760Y000932D01*
X022733Y000883D01*
X022704Y000837D01*
X022671Y000792D01*
X022634Y000750D01*
X022596Y000710D01*
X022554Y000673D01*
X022510Y000639D01*
X022463Y000609D01*
X022415Y000582D01*
X022365Y000558D01*
X022313Y000538D01*
X022260Y000521D01*
X022206Y000509D01*
X022151Y000500D01*
X022096Y000495D01*
X022040Y000494D01*
X021985Y000497D01*
X021930Y000504D01*
X021875Y000515D01*
X021821Y000529D01*
X021769Y000547D01*
X021718Y000569D01*
X021669Y000595D01*
X021621Y000624D01*
X021576Y000656D01*
X021533Y000691D01*
X021493Y000729D01*
X021455Y000770D01*
X021421Y000814D01*
X021389Y000860D01*
X021361Y000908D01*
X021337Y000958D01*
X021316Y001009D01*
X021298Y001062D01*
X021285Y001116D01*
X021275Y001170D01*
X021269Y001225D01*
X021267Y001281D01*
X022054Y000100D02*
X022120Y000102D01*
X022186Y000107D01*
X022252Y000117D01*
X022317Y000130D01*
X022381Y000146D01*
X022444Y000166D01*
X022506Y000190D01*
X022566Y000217D01*
X022625Y000247D01*
X022682Y000281D01*
X022737Y000318D01*
X022790Y000358D01*
X022841Y000400D01*
X022889Y000446D01*
X022935Y000494D01*
X022977Y000545D01*
X023017Y000598D01*
X023054Y000653D01*
X023088Y000710D01*
X023118Y000769D01*
X023145Y000829D01*
X023169Y000891D01*
X023189Y000954D01*
X023205Y001018D01*
X023218Y001083D01*
X023228Y001149D01*
X023233Y001215D01*
X023235Y001281D01*
X022054Y000100D02*
X002369Y000100D01*
X001582Y001281D02*
X001584Y001337D01*
X001590Y001392D01*
X001600Y001446D01*
X001613Y001500D01*
X001631Y001553D01*
X001652Y001604D01*
X001676Y001654D01*
X001704Y001702D01*
X001736Y001748D01*
X001770Y001792D01*
X001808Y001833D01*
X001848Y001871D01*
X001891Y001906D01*
X001936Y001938D01*
X001984Y001967D01*
X002033Y001993D01*
X002084Y002015D01*
X002136Y002033D01*
X002190Y002047D01*
X002245Y002058D01*
X002300Y002065D01*
X002355Y002068D01*
X002411Y002067D01*
X002466Y002062D01*
X002521Y002053D01*
X002575Y002041D01*
X002628Y002024D01*
X002680Y002004D01*
X002730Y001980D01*
X002778Y001953D01*
X002825Y001923D01*
X002869Y001889D01*
X002911Y001852D01*
X002949Y001812D01*
X002986Y001770D01*
X003019Y001725D01*
X003048Y001679D01*
X003075Y001630D01*
X003097Y001579D01*
X003117Y001527D01*
X003132Y001473D01*
X003144Y001419D01*
X003152Y001364D01*
X003156Y001309D01*
X003156Y001253D01*
X003152Y001198D01*
X003144Y001143D01*
X003132Y001089D01*
X003117Y001035D01*
X003097Y000983D01*
X003075Y000932D01*
X003048Y000883D01*
X003019Y000837D01*
X002986Y000792D01*
X002949Y000750D01*
X002911Y000710D01*
X002869Y000673D01*
X002825Y000639D01*
X002778Y000609D01*
X002730Y000582D01*
X002680Y000558D01*
X002628Y000538D01*
X002575Y000521D01*
X002521Y000509D01*
X002466Y000500D01*
X002411Y000495D01*
X002355Y000494D01*
X002300Y000497D01*
X002245Y000504D01*
X002190Y000515D01*
X002136Y000529D01*
X002084Y000547D01*
X002033Y000569D01*
X001984Y000595D01*
X001936Y000624D01*
X001891Y000656D01*
X001848Y000691D01*
X001808Y000729D01*
X001770Y000770D01*
X001736Y000814D01*
X001704Y000860D01*
X001676Y000908D01*
X001652Y000958D01*
X001631Y001009D01*
X001613Y001062D01*
X001600Y001116D01*
X001590Y001170D01*
X001584Y001225D01*
X001582Y001281D01*
X001188Y001281D02*
X001190Y001215D01*
X001195Y001149D01*
X001205Y001083D01*
X001218Y001018D01*
X001234Y000954D01*
X001254Y000891D01*
X001278Y000829D01*
X001305Y000769D01*
X001335Y000710D01*
X001369Y000653D01*
X001406Y000598D01*
X001446Y000545D01*
X001488Y000494D01*
X001534Y000446D01*
X001582Y000400D01*
X001633Y000358D01*
X001686Y000318D01*
X001741Y000281D01*
X001798Y000247D01*
X001857Y000217D01*
X001917Y000190D01*
X001979Y000166D01*
X002042Y000146D01*
X002106Y000130D01*
X002171Y000117D01*
X002237Y000107D01*
X002303Y000102D01*
X002369Y000100D01*
X014212Y004781D02*
X014214Y004825D01*
X014220Y004869D01*
X014230Y004912D01*
X014243Y004954D01*
X014260Y004995D01*
X014281Y005034D01*
X014305Y005071D01*
X014332Y005106D01*
X014362Y005138D01*
X014395Y005168D01*
X014431Y005194D01*
X014468Y005218D01*
X014508Y005237D01*
X014549Y005254D01*
X014592Y005266D01*
X014635Y005275D01*
X014679Y005280D01*
X014723Y005281D01*
X014767Y005278D01*
X014811Y005271D01*
X014854Y005260D01*
X014896Y005246D01*
X014936Y005228D01*
X014975Y005206D01*
X015011Y005182D01*
X015045Y005154D01*
X015077Y005123D01*
X015106Y005089D01*
X015132Y005053D01*
X015154Y005015D01*
X015173Y004975D01*
X015188Y004933D01*
X015200Y004891D01*
X015208Y004847D01*
X015212Y004803D01*
X015212Y004759D01*
X015208Y004715D01*
X015200Y004671D01*
X015188Y004629D01*
X015173Y004587D01*
X015154Y004547D01*
X015132Y004509D01*
X015106Y004473D01*
X015077Y004439D01*
X015045Y004408D01*
X015011Y004380D01*
X014975Y004356D01*
X014936Y004334D01*
X014896Y004316D01*
X014854Y004302D01*
X014811Y004291D01*
X014767Y004284D01*
X014723Y004281D01*
X014679Y004282D01*
X014635Y004287D01*
X014592Y004296D01*
X014549Y004308D01*
X014508Y004325D01*
X014468Y004344D01*
X014431Y004368D01*
X014395Y004394D01*
X014362Y004424D01*
X014332Y004456D01*
X014305Y004491D01*
X014281Y004528D01*
X014260Y004567D01*
X014243Y004608D01*
X014230Y004650D01*
X014220Y004693D01*
X014214Y004737D01*
X014212Y004781D01*
X021212Y004781D02*
X021214Y004825D01*
X021220Y004869D01*
X021230Y004912D01*
X021243Y004954D01*
X021260Y004995D01*
X021281Y005034D01*
X021305Y005071D01*
X021332Y005106D01*
X021362Y005138D01*
X021395Y005168D01*
X021431Y005194D01*
X021468Y005218D01*
X021508Y005237D01*
X021549Y005254D01*
X021592Y005266D01*
X021635Y005275D01*
X021679Y005280D01*
X021723Y005281D01*
X021767Y005278D01*
X021811Y005271D01*
X021854Y005260D01*
X021896Y005246D01*
X021936Y005228D01*
X021975Y005206D01*
X022011Y005182D01*
X022045Y005154D01*
X022077Y005123D01*
X022106Y005089D01*
X022132Y005053D01*
X022154Y005015D01*
X022173Y004975D01*
X022188Y004933D01*
X022200Y004891D01*
X022208Y004847D01*
X022212Y004803D01*
X022212Y004759D01*
X022208Y004715D01*
X022200Y004671D01*
X022188Y004629D01*
X022173Y004587D01*
X022154Y004547D01*
X022132Y004509D01*
X022106Y004473D01*
X022077Y004439D01*
X022045Y004408D01*
X022011Y004380D01*
X021975Y004356D01*
X021936Y004334D01*
X021896Y004316D01*
X021854Y004302D01*
X021811Y004291D01*
X021767Y004284D01*
X021723Y004281D01*
X021679Y004282D01*
X021635Y004287D01*
X021592Y004296D01*
X021549Y004308D01*
X021508Y004325D01*
X021468Y004344D01*
X021431Y004368D01*
X021395Y004394D01*
X021362Y004424D01*
X021332Y004456D01*
X021305Y004491D01*
X021281Y004528D01*
X021260Y004567D01*
X021243Y004608D01*
X021230Y004650D01*
X021220Y004693D01*
X021214Y004737D01*
X021212Y004781D01*
X021212Y022781D02*
X021214Y022825D01*
X021220Y022869D01*
X021230Y022912D01*
X021243Y022954D01*
X021260Y022995D01*
X021281Y023034D01*
X021305Y023071D01*
X021332Y023106D01*
X021362Y023138D01*
X021395Y023168D01*
X021431Y023194D01*
X021468Y023218D01*
X021508Y023237D01*
X021549Y023254D01*
X021592Y023266D01*
X021635Y023275D01*
X021679Y023280D01*
X021723Y023281D01*
X021767Y023278D01*
X021811Y023271D01*
X021854Y023260D01*
X021896Y023246D01*
X021936Y023228D01*
X021975Y023206D01*
X022011Y023182D01*
X022045Y023154D01*
X022077Y023123D01*
X022106Y023089D01*
X022132Y023053D01*
X022154Y023015D01*
X022173Y022975D01*
X022188Y022933D01*
X022200Y022891D01*
X022208Y022847D01*
X022212Y022803D01*
X022212Y022759D01*
X022208Y022715D01*
X022200Y022671D01*
X022188Y022629D01*
X022173Y022587D01*
X022154Y022547D01*
X022132Y022509D01*
X022106Y022473D01*
X022077Y022439D01*
X022045Y022408D01*
X022011Y022380D01*
X021975Y022356D01*
X021936Y022334D01*
X021896Y022316D01*
X021854Y022302D01*
X021811Y022291D01*
X021767Y022284D01*
X021723Y022281D01*
X021679Y022282D01*
X021635Y022287D01*
X021592Y022296D01*
X021549Y022308D01*
X021508Y022325D01*
X021468Y022344D01*
X021431Y022368D01*
X021395Y022394D01*
X021362Y022424D01*
X021332Y022456D01*
X021305Y022491D01*
X021281Y022528D01*
X021260Y022567D01*
X021243Y022608D01*
X021230Y022650D01*
X021220Y022693D01*
X021214Y022737D01*
X021212Y022781D01*
X023235Y022996D02*
X023233Y023091D01*
X023227Y023186D01*
X023218Y023280D01*
X023204Y023374D01*
X023187Y023468D01*
X023167Y023561D01*
X023142Y023652D01*
X023114Y023743D01*
X023082Y023833D01*
X023046Y023921D01*
X023007Y024007D01*
X022965Y024093D01*
X022919Y024176D01*
X022870Y024257D01*
X022818Y024336D01*
X022762Y024414D01*
X022704Y024488D01*
X022642Y024561D01*
X022578Y024631D01*
X022511Y024698D01*
X022441Y024762D01*
X022369Y024824D01*
X014212Y022781D02*
X014214Y022825D01*
X014220Y022869D01*
X014230Y022912D01*
X014243Y022954D01*
X014260Y022995D01*
X014281Y023034D01*
X014305Y023071D01*
X014332Y023106D01*
X014362Y023138D01*
X014395Y023168D01*
X014431Y023194D01*
X014468Y023218D01*
X014508Y023237D01*
X014549Y023254D01*
X014592Y023266D01*
X014635Y023275D01*
X014679Y023280D01*
X014723Y023281D01*
X014767Y023278D01*
X014811Y023271D01*
X014854Y023260D01*
X014896Y023246D01*
X014936Y023228D01*
X014975Y023206D01*
X015011Y023182D01*
X015045Y023154D01*
X015077Y023123D01*
X015106Y023089D01*
X015132Y023053D01*
X015154Y023015D01*
X015173Y022975D01*
X015188Y022933D01*
X015200Y022891D01*
X015208Y022847D01*
X015212Y022803D01*
X015212Y022759D01*
X015208Y022715D01*
X015200Y022671D01*
X015188Y022629D01*
X015173Y022587D01*
X015154Y022547D01*
X015132Y022509D01*
X015106Y022473D01*
X015077Y022439D01*
X015045Y022408D01*
X015011Y022380D01*
X014975Y022356D01*
X014936Y022334D01*
X014896Y022316D01*
X014854Y022302D01*
X014811Y022291D01*
X014767Y022284D01*
X014723Y022281D01*
X014679Y022282D01*
X014635Y022287D01*
X014592Y022296D01*
X014549Y022308D01*
X014508Y022325D01*
X014468Y022344D01*
X014431Y022368D01*
X014395Y022394D01*
X014362Y022424D01*
X014332Y022456D01*
X014305Y022491D01*
X014281Y022528D01*
X014260Y022567D01*
X014243Y022608D01*
X014230Y022650D01*
X014220Y022693D01*
X014214Y022737D01*
X014212Y022781D01*
X010693Y031202D02*
X010598Y031200D01*
X010503Y031194D01*
X010408Y031185D01*
X010314Y031171D01*
X010220Y031154D01*
X010127Y031133D01*
X010035Y031108D01*
X009944Y031080D01*
X009854Y031048D01*
X009766Y031012D01*
X009679Y030973D01*
X009594Y030931D01*
X009510Y030885D01*
X009429Y030835D01*
X009349Y030783D01*
X009272Y030727D01*
X009197Y030668D01*
X002054Y024824D02*
X001982Y024762D01*
X001912Y024698D01*
X001845Y024631D01*
X001781Y024561D01*
X001719Y024488D01*
X001661Y024414D01*
X001605Y024336D01*
X001553Y024257D01*
X001504Y024176D01*
X001458Y024093D01*
X001416Y024007D01*
X001377Y023921D01*
X001341Y023833D01*
X001309Y023743D01*
X001281Y023652D01*
X001256Y023561D01*
X001236Y023468D01*
X001219Y023374D01*
X001205Y023280D01*
X001196Y023186D01*
X001190Y023091D01*
X001188Y022996D01*
M02*
