G75*
%MOIN*%
%OFA0B0*%
%FSLAX24Y24*%
%IPPOS*%
%LPD*%
%AMOC8*
5,1,8,0,0,1.08239X$1,22.5*
%
%ADD10C,0.0040*%
%ADD11C,0.0000*%
%ADD12C,0.0050*%
%ADD13C,0.0060*%
%ADD14C,0.0080*%
D10*
X002900Y004793D02*
X002747Y004947D01*
X003207Y004947D01*
X003207Y005100D02*
X003207Y004793D01*
X003808Y005801D02*
X003732Y005878D01*
X003808Y005801D02*
X003962Y005801D01*
X004038Y005878D01*
X004038Y006031D01*
X003962Y006108D01*
X003885Y006108D01*
X003732Y006031D01*
X003732Y006261D01*
X004038Y006261D01*
X004192Y006261D02*
X004192Y005955D01*
X004345Y005801D01*
X004499Y005955D01*
X004499Y006261D01*
X003207Y009793D02*
X003207Y010100D01*
X003207Y009947D02*
X002747Y009947D01*
X002900Y009793D01*
X003732Y010801D02*
X003732Y011261D01*
X003962Y011261D01*
X004038Y011185D01*
X004038Y011031D01*
X003962Y010955D01*
X003732Y010955D01*
X004192Y011031D02*
X004499Y011031D01*
X004499Y011261D02*
X004499Y010801D01*
X004192Y010801D02*
X004192Y011261D01*
X003207Y015793D02*
X003207Y016100D01*
X003207Y015947D02*
X002747Y015947D01*
X002900Y015793D01*
X003732Y016801D02*
X003962Y016801D01*
X004038Y016878D01*
X004038Y017185D01*
X003962Y017261D01*
X003732Y017261D01*
X003732Y016801D01*
X004192Y016801D02*
X004269Y016801D01*
X004269Y016878D01*
X004192Y016878D01*
X004192Y016801D01*
X004422Y016878D02*
X004422Y017185D01*
X004499Y017261D01*
X004652Y017261D01*
X004729Y017185D01*
X004729Y016878D01*
X004652Y016801D01*
X004499Y016801D01*
X004422Y016878D01*
X004883Y016878D02*
X004959Y016878D01*
X004959Y016801D01*
X004883Y016801D01*
X004883Y016878D01*
X003207Y021293D02*
X003207Y021600D01*
X003207Y021447D02*
X002747Y021447D01*
X002900Y021293D01*
X002885Y022301D02*
X002885Y022761D01*
X002732Y022761D02*
X003038Y022761D01*
X003192Y022761D02*
X003192Y022301D01*
X003499Y022301D01*
X003652Y022301D02*
X003652Y022761D01*
X003806Y022608D01*
X003959Y022761D01*
X003959Y022301D01*
X004113Y022301D02*
X004113Y022761D01*
X004343Y022761D01*
X004420Y022685D01*
X004420Y022531D01*
X004343Y022455D01*
X004113Y022455D01*
X003499Y022761D02*
X003192Y022761D01*
X003192Y022531D02*
X003345Y022531D01*
X021506Y018508D02*
X021506Y018405D01*
X021506Y018457D02*
X021817Y018457D01*
X021817Y018508D02*
X021817Y018405D01*
X021817Y018289D02*
X021506Y018289D01*
X021610Y018186D01*
X021506Y018083D01*
X021817Y018083D01*
X021765Y017558D02*
X021558Y017558D01*
X021506Y017506D01*
X021506Y017403D01*
X021558Y017351D01*
X021765Y017351D01*
X021817Y017403D01*
X021817Y017506D01*
X021765Y017558D01*
X021817Y017236D02*
X021506Y017236D01*
X021610Y017132D01*
X021506Y017029D01*
X021817Y017029D01*
D11*
X022712Y022781D02*
X022710Y022841D01*
X022705Y022902D01*
X022696Y022961D01*
X022683Y023020D01*
X022667Y023079D01*
X022647Y023136D01*
X022624Y023191D01*
X022597Y023246D01*
X022568Y023298D01*
X022535Y023349D01*
X022499Y023398D01*
X022461Y023444D01*
X022419Y023488D01*
X022375Y023530D01*
X022329Y023568D01*
X022280Y023604D01*
X022229Y023637D01*
X022177Y023666D01*
X022122Y023693D01*
X022067Y023716D01*
X022010Y023736D01*
X021951Y023752D01*
X021892Y023765D01*
X021833Y023774D01*
X021772Y023779D01*
X021712Y023781D01*
X014712Y023781D01*
X014652Y023779D01*
X014591Y023774D01*
X014532Y023765D01*
X014473Y023752D01*
X014414Y023736D01*
X014357Y023716D01*
X014302Y023693D01*
X014247Y023666D01*
X014195Y023637D01*
X014144Y023604D01*
X014095Y023568D01*
X014049Y023530D01*
X014005Y023488D01*
X013963Y023444D01*
X013925Y023398D01*
X013889Y023349D01*
X013856Y023298D01*
X013827Y023246D01*
X013800Y023191D01*
X013777Y023136D01*
X013757Y023079D01*
X013741Y023020D01*
X013728Y022961D01*
X013719Y022902D01*
X013714Y022841D01*
X013712Y022781D01*
X013712Y004781D01*
X013714Y004721D01*
X013719Y004660D01*
X013728Y004601D01*
X013741Y004542D01*
X013757Y004483D01*
X013777Y004426D01*
X013800Y004371D01*
X013827Y004316D01*
X013856Y004264D01*
X013889Y004213D01*
X013925Y004164D01*
X013963Y004118D01*
X014005Y004074D01*
X014049Y004032D01*
X014095Y003994D01*
X014144Y003958D01*
X014195Y003925D01*
X014247Y003896D01*
X014302Y003869D01*
X014357Y003846D01*
X014414Y003826D01*
X014473Y003810D01*
X014532Y003797D01*
X014591Y003788D01*
X014652Y003783D01*
X014712Y003781D01*
X017212Y003781D01*
X017412Y003981D01*
X019012Y003981D01*
X019212Y003781D01*
X021712Y003781D01*
X021772Y003783D01*
X021833Y003788D01*
X021892Y003797D01*
X021951Y003810D01*
X022010Y003826D01*
X022067Y003846D01*
X022122Y003869D01*
X022177Y003896D01*
X022229Y003925D01*
X022280Y003958D01*
X022329Y003994D01*
X022375Y004032D01*
X022419Y004074D01*
X022461Y004118D01*
X022499Y004164D01*
X022535Y004213D01*
X022568Y004264D01*
X022597Y004316D01*
X022624Y004371D01*
X022647Y004426D01*
X022667Y004483D01*
X022683Y004542D01*
X022696Y004601D01*
X022705Y004660D01*
X022710Y004721D01*
X022712Y004781D01*
X022712Y022781D01*
D12*
X001613Y005738D02*
X001613Y002824D01*
X004723Y002824D01*
X004723Y005738D01*
X001613Y005738D01*
X001613Y007824D02*
X001613Y010738D01*
X004723Y010738D01*
X004723Y007824D01*
X001613Y007824D01*
X005212Y006531D02*
X005212Y012031D01*
X013212Y012031D01*
X013212Y006531D01*
X005212Y006531D01*
X006236Y006833D02*
X006236Y007008D01*
X006295Y007066D01*
X006411Y007066D01*
X006470Y007008D01*
X006470Y006833D01*
X006587Y006833D02*
X006236Y006833D01*
X006295Y007201D02*
X006528Y007201D01*
X006587Y007260D01*
X006587Y007376D01*
X006528Y007435D01*
X006411Y007435D01*
X006411Y007318D01*
X006295Y007435D02*
X006236Y007376D01*
X006236Y007260D01*
X006295Y007201D01*
X006236Y007569D02*
X006587Y007803D01*
X006236Y007803D01*
X006236Y007938D02*
X006236Y008113D01*
X006295Y008171D01*
X006528Y008171D01*
X006587Y008113D01*
X006587Y007938D01*
X006236Y007938D01*
X006236Y007569D02*
X006587Y007569D01*
X006587Y008701D02*
X006236Y008701D01*
X006236Y008876D01*
X006295Y008935D01*
X006411Y008935D01*
X006470Y008876D01*
X006470Y008701D01*
X006470Y009069D02*
X006470Y009245D01*
X006411Y009303D01*
X006295Y009303D01*
X006236Y009245D01*
X006236Y009069D01*
X006587Y009069D01*
X006470Y009186D02*
X006587Y009303D01*
X006587Y009438D02*
X006587Y009613D01*
X006528Y009671D01*
X006470Y009671D01*
X006411Y009613D01*
X006411Y009438D01*
X006236Y009438D02*
X006236Y009613D01*
X006295Y009671D01*
X006353Y009671D01*
X006411Y009613D01*
X006236Y009438D02*
X006587Y009438D01*
X006470Y010201D02*
X006236Y010201D01*
X006236Y010435D02*
X006470Y010435D01*
X006587Y010318D01*
X006470Y010201D01*
X006528Y010569D02*
X006295Y010569D01*
X006236Y010628D01*
X006236Y010745D01*
X006295Y010803D01*
X006295Y010938D02*
X006528Y010938D01*
X006587Y010996D01*
X006587Y011113D01*
X006528Y011171D01*
X006295Y011171D02*
X006236Y011113D01*
X006236Y010996D01*
X006295Y010938D01*
X006528Y010803D02*
X006587Y010745D01*
X006587Y010628D01*
X006528Y010569D01*
X006470Y012833D02*
X006470Y013008D01*
X006411Y013066D01*
X006295Y013066D01*
X006236Y013008D01*
X006236Y012833D01*
X006587Y012833D01*
X006528Y013201D02*
X006295Y013201D01*
X006236Y013260D01*
X006236Y013376D01*
X006295Y013435D01*
X006411Y013435D02*
X006411Y013318D01*
X006411Y013435D02*
X006528Y013435D01*
X006587Y013376D01*
X006587Y013260D01*
X006528Y013201D01*
X006587Y013569D02*
X006236Y013569D01*
X006587Y013803D01*
X006236Y013803D01*
X006236Y013938D02*
X006236Y014113D01*
X006295Y014171D01*
X006528Y014171D01*
X006587Y014113D01*
X006587Y013938D01*
X006236Y013938D01*
X006236Y014701D02*
X006236Y014876D01*
X006295Y014935D01*
X006411Y014935D01*
X006470Y014876D01*
X006470Y014701D01*
X006587Y014701D02*
X006236Y014701D01*
X006236Y015069D02*
X006236Y015245D01*
X006295Y015303D01*
X006411Y015303D01*
X006470Y015245D01*
X006470Y015069D01*
X006587Y015069D02*
X006236Y015069D01*
X006470Y015186D02*
X006587Y015303D01*
X006587Y015438D02*
X006587Y015613D01*
X006528Y015671D01*
X006470Y015671D01*
X006411Y015613D01*
X006411Y015438D01*
X006236Y015438D02*
X006236Y015613D01*
X006295Y015671D01*
X006353Y015671D01*
X006411Y015613D01*
X006236Y015438D02*
X006587Y015438D01*
X006470Y016201D02*
X006236Y016201D01*
X006236Y016435D02*
X006470Y016435D01*
X006587Y016318D01*
X006470Y016201D01*
X006528Y016569D02*
X006295Y016569D01*
X006236Y016628D01*
X006236Y016745D01*
X006295Y016803D01*
X006295Y016938D02*
X006528Y016938D01*
X006587Y016996D01*
X006587Y017113D01*
X006528Y017171D01*
X006295Y017171D02*
X006236Y017113D01*
X006236Y016996D01*
X006295Y016938D01*
X006528Y016803D02*
X006587Y016745D01*
X006587Y016628D01*
X006528Y016569D01*
X005212Y018031D02*
X013212Y018031D01*
X013212Y012531D01*
X005212Y012531D01*
X005212Y018031D01*
X004723Y018332D02*
X004723Y022230D01*
X001613Y022230D01*
X001613Y018332D01*
X004723Y018332D01*
X004723Y016738D02*
X004723Y013824D01*
X001613Y013824D01*
X001613Y016738D01*
X004723Y016738D01*
X010739Y020031D02*
X010739Y020531D01*
X011684Y020531D01*
X011684Y020031D01*
X010739Y020031D01*
X010739Y021781D02*
X010739Y022281D01*
X011684Y022281D01*
X011684Y021781D01*
X010739Y021781D01*
X010739Y022531D02*
X010739Y023031D01*
X011684Y023031D01*
X011684Y022531D01*
X010739Y022531D01*
X013786Y021947D02*
X013786Y021830D01*
X013845Y021772D01*
X013786Y021947D02*
X013845Y022005D01*
X013903Y022005D01*
X014137Y021772D01*
X014137Y022005D01*
X014586Y021707D02*
X014703Y021824D01*
X014937Y021824D01*
X014761Y021824D02*
X014761Y021590D01*
X014703Y021590D02*
X014586Y021707D01*
X014703Y021590D02*
X014937Y021590D01*
X014878Y021455D02*
X014937Y021397D01*
X014937Y021222D01*
X014586Y021222D01*
X014586Y021397D01*
X014645Y021455D01*
X014878Y021455D01*
X014878Y021087D02*
X014937Y021029D01*
X014937Y020912D01*
X014878Y020854D01*
X014937Y020774D02*
X014937Y020540D01*
X014586Y020540D01*
X014645Y020405D02*
X014586Y020347D01*
X014586Y020230D01*
X014645Y020172D01*
X014878Y020172D01*
X014937Y020230D01*
X014937Y020347D01*
X014878Y020405D01*
X014878Y020037D02*
X014937Y019979D01*
X014937Y019862D01*
X014878Y019804D01*
X014761Y019862D02*
X014761Y019979D01*
X014820Y020037D01*
X014878Y020037D01*
X014761Y019862D02*
X014703Y019804D01*
X014645Y019804D01*
X014586Y019862D01*
X014586Y019979D01*
X014645Y020037D01*
X014552Y019456D02*
X014552Y019281D01*
X014669Y019340D01*
X014728Y019340D01*
X014786Y019281D01*
X014786Y019164D01*
X014728Y019106D01*
X014611Y019106D01*
X014552Y019164D01*
X014552Y019256D02*
X014611Y019315D01*
X014728Y019198D01*
X014786Y019256D01*
X014786Y019456D02*
X014552Y019456D01*
X014786Y018406D02*
X014669Y018348D01*
X014552Y018231D01*
X014728Y018231D01*
X014786Y018173D01*
X014786Y018114D01*
X014728Y018056D01*
X014611Y018056D01*
X014552Y018114D01*
X014552Y018231D01*
X014552Y018256D02*
X014611Y018315D01*
X014728Y018198D01*
X014786Y018256D01*
X014728Y017456D02*
X014611Y017456D01*
X014552Y017398D01*
X014552Y017340D01*
X014611Y017281D01*
X014786Y017281D01*
X014786Y017306D02*
X014728Y017248D01*
X014611Y017365D01*
X014552Y017306D01*
X014552Y017164D02*
X014611Y017106D01*
X014728Y017106D01*
X014786Y017164D01*
X014786Y017398D01*
X014728Y017456D01*
X014651Y016576D02*
X014872Y016356D01*
X014927Y016411D01*
X014927Y016521D01*
X014872Y016576D01*
X014651Y016576D01*
X014596Y016521D01*
X014596Y016411D01*
X014651Y016356D01*
X014872Y016356D01*
X014927Y016226D02*
X014927Y016006D01*
X014927Y016116D02*
X014596Y016116D01*
X014706Y016006D01*
X014595Y015897D02*
X014536Y015955D01*
X014595Y015897D02*
X014478Y015780D01*
X014536Y015722D01*
X014786Y015507D02*
X015137Y015507D01*
X015137Y015390D02*
X015137Y015624D01*
X014903Y015390D02*
X014786Y015507D01*
X014786Y015139D02*
X015137Y015139D01*
X015137Y015255D02*
X015137Y015022D01*
X014903Y015022D02*
X014786Y015139D01*
X014786Y014887D02*
X014845Y014829D01*
X014728Y014712D01*
X014786Y014654D01*
X014845Y014490D02*
X014786Y014431D01*
X014786Y014314D01*
X014845Y014256D01*
X014845Y014490D02*
X014903Y014490D01*
X015137Y014256D01*
X015137Y014490D01*
X015137Y014121D02*
X015137Y013888D01*
X015137Y014005D02*
X014786Y014005D01*
X014903Y013888D01*
X014903Y013640D02*
X014961Y013581D01*
X015020Y013640D01*
X015078Y013640D01*
X015137Y013581D01*
X015137Y013464D01*
X015078Y013406D01*
X015137Y013271D02*
X015137Y013038D01*
X015137Y013155D02*
X014786Y013155D01*
X014903Y013038D01*
X014903Y012874D02*
X014961Y012815D01*
X014961Y012640D01*
X015020Y012505D02*
X015078Y012505D01*
X015137Y012447D01*
X015137Y012330D01*
X015078Y012272D01*
X014961Y012330D02*
X014961Y012447D01*
X015020Y012505D01*
X014845Y012505D02*
X014786Y012447D01*
X014786Y012330D01*
X014845Y012272D01*
X014903Y012272D01*
X014961Y012330D01*
X015078Y012137D02*
X014786Y012137D01*
X014786Y011904D02*
X015078Y011904D01*
X015137Y011962D01*
X015137Y012079D01*
X015078Y012137D01*
X014937Y011590D02*
X014761Y011590D01*
X014703Y011531D01*
X014703Y011356D01*
X014937Y011356D01*
X014937Y011221D02*
X014937Y010988D01*
X014586Y010988D01*
X014586Y011221D01*
X014761Y011105D02*
X014761Y010988D01*
X014586Y010674D02*
X014586Y010440D01*
X014586Y010557D02*
X014937Y010557D01*
X014937Y010305D02*
X014703Y010305D01*
X014586Y010189D01*
X014703Y010072D01*
X014937Y010072D01*
X014878Y009937D02*
X014937Y009879D01*
X014937Y009704D01*
X014586Y009704D01*
X014586Y009879D01*
X014645Y009937D01*
X014703Y009937D01*
X014761Y009879D01*
X014761Y009704D01*
X014761Y009879D02*
X014820Y009937D01*
X014878Y009937D01*
X014761Y010072D02*
X014761Y010305D01*
X014786Y012640D02*
X014786Y012815D01*
X014845Y012874D01*
X014903Y012874D01*
X014961Y012815D02*
X015020Y012874D01*
X015078Y012874D01*
X015137Y012815D01*
X015137Y012640D01*
X014786Y012640D01*
X014845Y013406D02*
X014786Y013464D01*
X014786Y013581D01*
X014845Y013640D01*
X014903Y013640D01*
X014961Y013581D02*
X014961Y013523D01*
X017713Y011431D02*
X017713Y011081D01*
X017713Y011198D02*
X017888Y011198D01*
X017947Y011256D01*
X017947Y011373D01*
X017888Y011431D01*
X017713Y011431D01*
X017830Y011198D02*
X017947Y011081D01*
X018082Y011081D02*
X018082Y011431D01*
X018315Y011431D01*
X018450Y011431D02*
X018450Y011081D01*
X018683Y011081D02*
X018683Y011431D01*
X018567Y011315D01*
X018450Y011431D01*
X018818Y011256D02*
X018993Y011256D01*
X019052Y011198D01*
X019052Y011139D01*
X018993Y011081D01*
X018877Y011081D01*
X018818Y011139D01*
X018818Y011256D01*
X018935Y011373D01*
X019052Y011431D01*
X019187Y011373D02*
X019187Y011315D01*
X019245Y011256D01*
X019420Y011256D01*
X019420Y011139D02*
X019420Y011373D01*
X019362Y011431D01*
X019245Y011431D01*
X019187Y011373D01*
X019187Y011139D02*
X019245Y011081D01*
X019362Y011081D01*
X019420Y011139D01*
X019555Y011081D02*
X019555Y011431D01*
X019555Y011256D02*
X019788Y011256D01*
X019788Y011431D02*
X019788Y011081D01*
X019923Y011139D02*
X019923Y011373D01*
X019982Y011431D01*
X020098Y011431D01*
X020157Y011373D01*
X020291Y011431D02*
X020291Y011081D01*
X020408Y011198D01*
X020525Y011081D01*
X020525Y011431D01*
X020157Y011139D02*
X020098Y011081D01*
X019982Y011081D01*
X019923Y011139D01*
X019815Y010881D02*
X019873Y010823D01*
X019815Y010881D02*
X019698Y010881D01*
X019640Y010823D01*
X019640Y010764D01*
X019698Y010706D01*
X019756Y010706D01*
X019698Y010706D02*
X019640Y010648D01*
X019640Y010589D01*
X019698Y010531D01*
X019815Y010531D01*
X019873Y010589D01*
X019505Y010589D02*
X019446Y010531D01*
X019330Y010531D01*
X019271Y010589D01*
X019271Y010648D01*
X019505Y010881D01*
X019271Y010881D01*
X019137Y010823D02*
X019078Y010881D01*
X018903Y010881D01*
X018903Y010648D01*
X018768Y010706D02*
X018535Y010706D01*
X018593Y010881D02*
X018593Y010531D01*
X018768Y010706D01*
X019137Y010648D02*
X019137Y010823D01*
X018198Y011256D02*
X018082Y011256D01*
X018434Y008456D02*
X018609Y008456D01*
X018668Y008398D01*
X018668Y008281D01*
X018609Y008223D01*
X018434Y008223D01*
X018551Y008223D02*
X018668Y008106D01*
X018802Y008164D02*
X018861Y008106D01*
X018978Y008106D01*
X019036Y008164D01*
X019036Y008223D01*
X018978Y008281D01*
X018861Y008281D01*
X018802Y008340D01*
X018802Y008398D01*
X018861Y008456D01*
X018978Y008456D01*
X019036Y008398D01*
X019171Y008456D02*
X019404Y008456D01*
X019287Y008456D02*
X019287Y008106D01*
X018434Y008106D02*
X018434Y008456D01*
X020445Y006424D02*
X020386Y006365D01*
X020386Y006249D01*
X020445Y006190D01*
X020678Y006190D01*
X020737Y006249D01*
X020737Y006365D01*
X020678Y006424D01*
X020561Y006424D01*
X020561Y006307D01*
X020561Y006055D02*
X020561Y005822D01*
X020386Y005822D02*
X020737Y005822D01*
X020678Y005687D02*
X020737Y005629D01*
X020737Y005512D01*
X020678Y005454D01*
X020445Y005454D01*
X020386Y005512D01*
X020386Y005629D01*
X020445Y005687D01*
X020386Y006055D02*
X020737Y006055D01*
X021336Y005979D02*
X021336Y005804D01*
X021687Y005804D01*
X021570Y005804D02*
X021570Y005979D01*
X021511Y006037D01*
X021395Y006037D01*
X021336Y005979D01*
X021395Y006172D02*
X021453Y006172D01*
X021511Y006230D01*
X021511Y006347D01*
X021570Y006405D01*
X021628Y006405D01*
X021687Y006347D01*
X021687Y006230D01*
X021628Y006172D01*
X021687Y006037D02*
X021570Y005920D01*
X021395Y006172D02*
X021336Y006230D01*
X021336Y006347D01*
X021395Y006405D01*
X021336Y006540D02*
X021336Y006774D01*
X021336Y006657D02*
X021687Y006657D01*
X021678Y006988D02*
X021737Y007046D01*
X021737Y007163D01*
X021678Y007221D01*
X021620Y007221D01*
X021561Y007163D01*
X021561Y007105D01*
X021561Y007163D02*
X021503Y007221D01*
X021445Y007221D01*
X021386Y007163D01*
X021386Y007046D01*
X021445Y006988D01*
X021386Y007356D02*
X021620Y007356D01*
X021737Y007473D01*
X021620Y007590D01*
X021386Y007590D01*
X021503Y007815D02*
X021386Y007932D01*
X021503Y008049D01*
X021737Y008049D01*
X021737Y008183D02*
X021386Y008183D01*
X021386Y008358D01*
X021445Y008417D01*
X021561Y008417D01*
X021620Y008358D01*
X021620Y008183D01*
X021620Y008300D02*
X021737Y008417D01*
X021737Y008610D02*
X021445Y008610D01*
X021386Y008668D01*
X021561Y008668D02*
X021561Y008552D01*
X021628Y008854D02*
X021395Y008854D01*
X021336Y008912D01*
X021336Y009029D01*
X021395Y009087D01*
X021511Y009087D02*
X021511Y008970D01*
X021511Y009087D02*
X021628Y009087D01*
X021687Y009029D01*
X021687Y008912D01*
X021628Y008854D01*
X021687Y009222D02*
X021336Y009222D01*
X021687Y009455D01*
X021336Y009455D01*
X021336Y009590D02*
X021336Y009765D01*
X021395Y009824D01*
X021628Y009824D01*
X021687Y009765D01*
X021687Y009590D01*
X021336Y009590D01*
X021403Y009988D02*
X021286Y010105D01*
X021403Y010221D01*
X021637Y010221D01*
X021578Y010356D02*
X021345Y010590D01*
X021578Y010590D01*
X021637Y010531D01*
X021637Y010414D01*
X021578Y010356D01*
X021345Y010356D01*
X021286Y010414D01*
X021286Y010531D01*
X021345Y010590D01*
X021461Y010221D02*
X021461Y009988D01*
X021403Y009988D02*
X021637Y009988D01*
X021637Y010988D02*
X021403Y010988D01*
X021286Y011105D01*
X021403Y011221D01*
X021637Y011221D01*
X021637Y011356D02*
X021637Y011590D01*
X021637Y011473D02*
X021286Y011473D01*
X021403Y011356D01*
X021461Y011221D02*
X021461Y010988D01*
X021461Y011988D02*
X021461Y012221D01*
X021403Y012221D02*
X021637Y012221D01*
X021637Y012356D02*
X021403Y012590D01*
X021345Y012590D01*
X021286Y012531D01*
X021286Y012414D01*
X021345Y012356D01*
X021403Y012221D02*
X021286Y012105D01*
X021403Y011988D01*
X021637Y011988D01*
X021637Y012356D02*
X021637Y012590D01*
X021637Y012938D02*
X021403Y012938D01*
X021286Y013055D01*
X021403Y013171D01*
X021637Y013171D01*
X021578Y013306D02*
X021637Y013364D01*
X021637Y013481D01*
X021578Y013540D01*
X021520Y013540D01*
X021461Y013481D01*
X021461Y013423D01*
X021461Y013481D02*
X021403Y013540D01*
X021345Y013540D01*
X021286Y013481D01*
X021286Y013364D01*
X021345Y013306D01*
X021461Y013171D02*
X021461Y012938D01*
X021461Y013938D02*
X021461Y014171D01*
X021403Y014171D02*
X021637Y014171D01*
X021461Y014306D02*
X021461Y014540D01*
X021286Y014481D02*
X021461Y014306D01*
X021403Y014171D02*
X021286Y014055D01*
X021403Y013938D01*
X021637Y013938D01*
X021637Y014481D02*
X021286Y014481D01*
X021403Y014938D02*
X021286Y015055D01*
X021403Y015171D01*
X021637Y015171D01*
X021578Y015306D02*
X021637Y015364D01*
X021637Y015481D01*
X021578Y015540D01*
X021461Y015540D01*
X021403Y015481D01*
X021403Y015423D01*
X021461Y015306D01*
X021286Y015306D01*
X021286Y015540D01*
X021545Y015754D02*
X021603Y015754D01*
X021661Y015812D01*
X021661Y015929D01*
X021720Y015987D01*
X021778Y015987D01*
X021837Y015929D01*
X021837Y015812D01*
X021778Y015754D01*
X021545Y015754D02*
X021486Y015812D01*
X021486Y015929D01*
X021545Y015987D01*
X021545Y016122D02*
X021778Y016122D01*
X021837Y016180D01*
X021837Y016297D01*
X021778Y016355D01*
X021720Y016490D02*
X021486Y016724D01*
X021486Y016490D02*
X021837Y016490D01*
X021661Y016549D02*
X021837Y016724D01*
X021545Y016355D02*
X021486Y016297D01*
X021486Y016180D01*
X021545Y016122D01*
X021461Y015171D02*
X021461Y014938D01*
X021403Y014938D02*
X021637Y014938D01*
X021720Y018988D02*
X021720Y019163D01*
X021661Y019221D01*
X021545Y019221D01*
X021486Y019163D01*
X021486Y018988D01*
X021837Y018988D01*
X021720Y019105D02*
X021837Y019221D01*
X021837Y019356D02*
X021486Y019590D01*
X021486Y019356D02*
X021837Y019590D01*
X021486Y019988D02*
X021486Y020221D01*
X021486Y020105D02*
X021837Y020105D01*
X021837Y020356D02*
X021486Y020590D01*
X021486Y020356D02*
X021837Y020590D01*
X021837Y020865D02*
X021837Y020982D01*
X021837Y020923D02*
X021486Y020923D01*
X021486Y020865D02*
X021486Y020982D01*
X021545Y021111D02*
X021778Y021111D01*
X021837Y021169D01*
X021837Y021286D01*
X021778Y021344D01*
X021545Y021344D01*
X021486Y021286D01*
X021486Y021169D01*
X021545Y021111D01*
X021603Y021479D02*
X021486Y021596D01*
X021837Y021596D01*
X021837Y021712D02*
X021837Y021479D01*
X022286Y020789D02*
X022637Y020789D01*
X022637Y020905D02*
X022637Y020672D01*
X022403Y020672D02*
X022286Y020789D01*
X022345Y019905D02*
X022578Y019672D01*
X022637Y019730D01*
X022637Y019847D01*
X022578Y019905D01*
X022345Y019905D01*
X022286Y019847D01*
X022286Y019730D01*
X022345Y019672D01*
X022578Y019672D01*
X014878Y021087D02*
X014820Y021087D01*
X014761Y021029D01*
X014761Y020912D01*
X014703Y020854D01*
X014645Y020854D01*
X014586Y020912D01*
X014586Y021029D01*
X014645Y021087D01*
X014137Y020847D02*
X014137Y020730D01*
X014078Y020672D01*
X013961Y020789D02*
X013961Y020847D01*
X014020Y020905D01*
X014078Y020905D01*
X014137Y020847D01*
X013961Y020847D02*
X013903Y020905D01*
X013845Y020905D01*
X013786Y020847D01*
X013786Y020730D01*
X013845Y020672D01*
X012028Y016671D02*
X011795Y016671D01*
X011736Y016613D01*
X011736Y016438D01*
X012087Y016438D01*
X012087Y016613D01*
X012028Y016671D01*
X012087Y016303D02*
X011736Y016303D01*
X011736Y016069D02*
X012087Y016303D01*
X012087Y016069D02*
X011736Y016069D01*
X011795Y015935D02*
X011736Y015876D01*
X011736Y015760D01*
X011795Y015701D01*
X012028Y015701D01*
X012087Y015760D01*
X012087Y015876D01*
X012028Y015935D01*
X011911Y015935D01*
X011911Y015818D01*
X011736Y015421D02*
X012087Y015188D01*
X012087Y015421D02*
X011736Y015188D01*
X011736Y015053D02*
X011736Y014819D01*
X011736Y014936D02*
X012087Y014936D01*
X012087Y014421D02*
X011736Y014188D01*
X011795Y014053D02*
X011911Y014053D01*
X011970Y013995D01*
X011970Y013819D01*
X012087Y013819D02*
X011736Y013819D01*
X011736Y013995D01*
X011795Y014053D01*
X011970Y013936D02*
X012087Y014053D01*
X012087Y014188D02*
X011736Y014421D01*
X011795Y010671D02*
X011736Y010613D01*
X011736Y010438D01*
X012087Y010438D01*
X012087Y010613D01*
X012028Y010671D01*
X011795Y010671D01*
X011736Y010303D02*
X012087Y010303D01*
X011736Y010069D01*
X012087Y010069D01*
X012028Y009935D02*
X011911Y009935D01*
X011911Y009818D01*
X011795Y009935D02*
X011736Y009876D01*
X011736Y009760D01*
X011795Y009701D01*
X012028Y009701D01*
X012087Y009760D01*
X012087Y009876D01*
X012028Y009935D01*
X012087Y009421D02*
X011736Y009188D01*
X011736Y009053D02*
X011736Y008819D01*
X011736Y008936D02*
X012087Y008936D01*
X012087Y009188D02*
X011736Y009421D01*
X011736Y008421D02*
X012087Y008188D01*
X012087Y008053D02*
X011970Y007936D01*
X011970Y007995D02*
X011970Y007819D01*
X012087Y007819D02*
X011736Y007819D01*
X011736Y007995D01*
X011795Y008053D01*
X011911Y008053D01*
X011970Y007995D01*
X011736Y008188D02*
X012087Y008421D01*
X015092Y006056D02*
X015092Y005706D01*
X015209Y005706D02*
X015209Y006056D01*
X015209Y005940D02*
X015034Y005940D01*
X015034Y005823D02*
X015268Y005823D01*
X015268Y005940D02*
X015209Y005940D01*
X015402Y005940D02*
X015519Y006056D01*
X015519Y005706D01*
X015402Y005706D02*
X015636Y005706D01*
X015771Y005764D02*
X015829Y005706D01*
X015946Y005706D01*
X016004Y005764D01*
X016004Y005823D01*
X015946Y005881D01*
X015887Y005881D01*
X015946Y005881D02*
X016004Y005940D01*
X016004Y005998D01*
X015946Y006056D01*
X015829Y006056D01*
X015771Y005998D01*
X021503Y007815D02*
X021737Y007815D01*
X021561Y007815D02*
X021561Y008049D01*
X006184Y005031D02*
X006184Y004531D01*
X005239Y004531D01*
X005239Y005031D01*
X006184Y005031D01*
D13*
X017131Y015166D02*
X017202Y015236D01*
X017412Y015236D01*
X017412Y015306D02*
X017412Y015096D01*
X017202Y015096D01*
X017131Y015166D01*
X017202Y015376D02*
X017342Y015376D01*
X017412Y015306D01*
X017573Y015306D02*
X017643Y015376D01*
X017854Y015376D01*
X017854Y015516D02*
X017854Y015096D01*
X017643Y015096D01*
X017573Y015166D01*
X017573Y015306D01*
X018015Y015166D02*
X018085Y015236D01*
X018296Y015236D01*
X018296Y015306D02*
X018296Y015096D01*
X018085Y015096D01*
X018015Y015166D01*
X018085Y015376D02*
X018226Y015376D01*
X018296Y015306D01*
X018457Y015306D02*
X018598Y015306D01*
X018527Y015446D02*
X018527Y015096D01*
X018752Y015096D02*
X018752Y015376D01*
X018752Y015236D02*
X018892Y015376D01*
X018962Y015376D01*
X019120Y015376D02*
X019120Y015166D01*
X019190Y015096D01*
X019401Y015096D01*
X019401Y015376D01*
X019562Y015376D02*
X019632Y015376D01*
X019632Y015096D01*
X019562Y015096D02*
X019702Y015096D01*
X019927Y015166D02*
X019927Y015446D01*
X019857Y015376D02*
X019997Y015376D01*
X019927Y015166D02*
X019997Y015096D01*
X019632Y015516D02*
X019632Y015587D01*
X018598Y015516D02*
X018527Y015446D01*
X018646Y010376D02*
X018646Y010156D01*
X018720Y010083D01*
X018866Y010083D01*
X018940Y010156D01*
X019100Y010083D02*
X019247Y010083D01*
X019173Y010009D02*
X019173Y010303D01*
X019100Y010376D01*
X018940Y010376D02*
X018940Y009936D01*
X018479Y010156D02*
X018406Y010083D01*
X018259Y010083D01*
X018186Y010156D01*
X018186Y010229D01*
X018479Y010229D01*
X018479Y010156D02*
X018479Y010303D01*
X018406Y010376D01*
X018259Y010376D01*
X018019Y010376D02*
X018019Y010083D01*
X018019Y010229D02*
X017872Y010083D01*
X017799Y010083D01*
X019413Y010156D02*
X019413Y010376D01*
X019634Y010376D01*
X019707Y010303D01*
X019634Y010229D01*
X019413Y010229D01*
X019413Y010156D02*
X019487Y010083D01*
X019634Y010083D01*
X019874Y010156D02*
X019874Y010229D01*
X020167Y010229D01*
X020167Y010156D02*
X020094Y010083D01*
X019947Y010083D01*
X019874Y010156D01*
X019947Y010376D02*
X020094Y010376D01*
X020167Y010303D01*
X020167Y010156D01*
X020334Y009936D02*
X020628Y009936D01*
X020628Y010376D01*
X020628Y010156D02*
X020481Y010156D01*
D14*
X020071Y018871D02*
X019864Y019078D01*
X019657Y018871D01*
X019657Y019492D01*
X019426Y019388D02*
X019323Y019492D01*
X019116Y019492D01*
X019012Y019388D01*
X019012Y018975D01*
X019116Y018871D01*
X019323Y018871D01*
X019426Y018975D01*
X018782Y018871D02*
X018782Y019492D01*
X018782Y019181D02*
X018368Y019181D01*
X018368Y018871D02*
X018368Y019492D01*
X018137Y019492D02*
X018137Y018871D01*
X017930Y019285D02*
X018137Y019492D01*
X017930Y019285D02*
X017723Y019492D01*
X017723Y018871D01*
X017286Y019181D02*
X017079Y019181D01*
X016848Y019181D02*
X016745Y019078D01*
X016434Y019078D01*
X016434Y018871D02*
X016434Y019492D01*
X016745Y019492D01*
X016848Y019388D01*
X016848Y019181D01*
X016641Y019078D02*
X016848Y018871D01*
X017079Y018871D02*
X017079Y019492D01*
X017492Y019492D01*
X020071Y019492D02*
X020071Y018871D01*
M02*
